<svg xmlns="http://www.w3.org/2000/svg" xmlns:xlink="http://www.w3.org/1999/xlink" viewBox="0 0 686.79 167.29"><defs><style>.cls-1{fill:none;}.cls-2{fill:#393a3a;}.cls-3{clip-path:url(#clip-path);}.cls-4{fill:url(#Degradado_sin_nombre_62);}.cls-5{clip-path:url(#clip-path-2);}.cls-6{fill:url(#Degradado_sin_nombre_62-2);}</style><clipPath id="clip-path"><path class="cls-1" d="M146.83,68.86a14.48,14.48,0,0,0,6.1,18.64,88.57,88.57,0,0,0,10.84,4.89q9,3.66,12.36,7.06t3.4,10q0,12.18-11.5,12.18-8.29,0-12-4.26t-3.66-13.67h-22a36,36,0,0,0,4.9,19.06,32.54,32.54,0,0,0,13.56,12.4A42.34,42.34,0,0,0,168,139.55q15.54,0,24.59-8t9-22.2q0-12.93-7.21-21.3T171.32,73.93Q162.2,70,158.61,66.42A11.29,11.29,0,0,1,155,58.31a18.58,18.58,0,0,1,.16-2.16,41.26,41.26,0,0,0-8.35,12.71"/></clipPath><linearGradient id="Degradado_sin_nombre_62" x1="1955.48" y1="-1368.85" x2="1958.28" y2="-1368.85" gradientTransform="matrix(25.47, 0, 0, -25.47, -49678.38, -34768.69)" gradientUnits="userSpaceOnUse"><stop offset="0" stop-color="#e6334f"/><stop offset="1" stop-color="#e27b1d"/></linearGradient><clipPath id="clip-path-2"><path class="cls-1" d="M49.68,72.62A10.84,10.84,0,1,1,60.52,83.45,10.83,10.83,0,0,1,49.68,72.62m-1.9-32.41A17.13,17.13,0,0,0,42,20.61c.18,14.09-8,18.87-16.33,30.44C0,86.74,34.34,107.22,34.34,107.22c-6.13-11.15-.4-15.63-.4-15.63s1.26,23,27.5,23c58.76,0,38.85-66.93,38.85-66.93a18.63,18.63,0,0,1-7.85,16.78C103.54,11.69,39.32,0,39.32,0,62.64,28.93,48,39.56,47.78,40.21"/></clipPath><linearGradient id="Degradado_sin_nombre_62-2" x1="2789.97" y1="-1358.29" x2="2792.83" y2="-1358.29" gradientTransform="matrix(30.55, 0, 0, -30.55, -85222.66, -41440.93)" xlink:href="#Degradado_sin_nombre_62"/></defs><title>SAFERS_original</title><g id="Capa_2" data-name="Capa 2"><g id="Capa_1-2" data-name="Capa 1"><path class="cls-2" d="M288.58,115.78h-30l-5.83,22.27H229.54l34-108.81h20.1l34.23,108.81H294.41ZM263.4,97.47h20.32L273.56,58.68Z"/><polygon class="cls-2" points="400.48 93.66 366.32 93.66 366.32 138.05 344.35 138.05 344.35 29.24 404.59 29.24 404.59 47.55 366.32 47.55 366.32 75.42 400.48 75.42 400.48 93.66"/><polygon class="cls-2" points="488.44 90.97 454.21 90.97 454.21 119.81 494.71 119.81 494.71 138.05 432.24 138.05 432.24 29.24 494.56 29.24 494.56 47.55 454.21 47.55 454.21 73.25 488.44 73.25 488.44 90.97"/><path class="cls-2" d="M554.8,98.29H543.89v39.76h-22V29.24H557q16.51,0,25.52,8.56t9,24.32q0,21.67-15.77,30.34L594.78,137v1.05H571.17ZM543.89,80h12.48q6.57,0,9.86-4.37t3.29-11.7q0-16.36-12.78-16.36H543.89Z"/><path class="cls-2" d="M664.6,109.5q0-6.65-3.4-10t-12.37-7.06q-16.37-6.21-23.54-14.54a29.22,29.22,0,0,1-7.18-19.69q0-13.75,9.76-22.08t24.77-8.34A37.16,37.16,0,0,1,670.5,32a29.33,29.33,0,0,1,12.07,11.93,35.69,35.69,0,0,1,4.22,17.48H664.9q0-7.62-3.25-11.62t-9.38-4q-5.76,0-9,3.39t-3.21,9.16a11.28,11.28,0,0,0,3.58,8.11q3.58,3.63,12.71,7.51,15.92,5.76,23.12,14.12t7.22,21.3q0,14.2-9,22.2t-24.59,8a42.34,42.34,0,0,1-19.21-4.33,32.49,32.49,0,0,1-13.56-12.41,36.05,36.05,0,0,1-4.9-19h22.05q0,9.41,3.66,13.67t12,4.27q11.5,0,11.51-12.19"/><g class="cls-3"><rect class="cls-4" x="130.36" y="56.15" width="71.29" height="83.4"/></g><path class="cls-2" d="M197.51,43.89A29.25,29.25,0,0,0,185.44,32a37,37,0,0,0-17.86-4.23q-15,0-24.78,8.34t-9.75,22.08a29.21,29.21,0,0,0,6.11,18.21c6.46-21.1,16.28-27.62,22.15-29.57a13.81,13.81,0,0,1,4.74-1l1.16-.05q6.12,0,9.37,4t3.26,11.62h21.89a35.69,35.69,0,0,0-4.22-17.48"/><path class="cls-2" d="M60.38,126.47h-.94a77.82,77.82,0,0,1-39.86-11.4l39.91,52.23,40.61-51.58a77.86,77.86,0,0,1-39.72,10.76"/><g class="cls-5"><rect class="cls-6" width="120.2" height="114.64"/></g></g></g></svg>