<svg width="101" height="60" viewBox="0 0 101 60" fill="none" xmlns="http://www.w3.org/2000/svg">
<path d="M20.0017 44.2573C18.8201 44.2603 17.6385 44.3389 16.4673 44.4959C17.4025 45.813 18.2506 47.1882 19.0044 48.6143L19.5768 49.7481C19.6181 49.8238 19.6795 49.8871 19.7542 49.9311C19.829 49.9753 19.9145 49.9985 20.0017 49.9985C20.0888 49.9985 20.1744 49.9753 20.2491 49.9311C20.3239 49.8871 20.3852 49.8238 20.4265 49.7481L20.7583 49.1019C21.5983 47.5366 22.5374 46.025 23.5699 44.576C22.3899 44.3912 21.1966 44.285 20.0017 44.2573Z" fill="black"/>
<path d="M40 19.7524C40.0017 17.0781 39.4524 14.4313 38.3857 11.9727C37.3189 9.51405 35.757 7.29491 33.7945 5.44992C31.832 3.60494 29.5099 2.17257 26.9694 1.23975C24.4287 0.306938 21.7225 -0.106866 19.0148 0.0234517C9.49287 0.478949 0.658323 9.00242 0.0490942 18.3844C-0.177041 21.5575 0.380342 24.7373 1.67343 27.6511C2.96654 30.5649 4.95676 33.1258 7.47342 35.1142C12.2286 38.7734 16.1559 43.3728 19.003 48.6176L19.5783 49.7497C19.6193 49.8254 19.6803 49.8887 19.7549 49.9327C19.8294 49.9769 19.9148 50.0001 20.0017 50C20.1788 50 20.341 49.9041 20.4265 49.7497L20.7585 49.1037C23.6201 43.6783 27.6121 38.9109 32.4724 35.1142C34.817 33.2768 36.7113 30.9417 38.0146 28.2822C39.3179 25.6228 39.9965 22.7078 40 19.7539V19.7524Z" fill="black"/>
<path d="M71 60C87.5689 60 101 46.5685 101 30C101 13.4315 87.5689 0 71 0C54.4318 0 41 13.4315 41 30C41 46.5685 54.4318 60 71 60Z" fill="black"/>
</svg>
