<?xml version="1.0" encoding="UTF-8" standalone="no"?>
<!-- Generator: Adobe Illustrator 16.0.0, SVG Export Plug-In . SVG Version: 6.00 Build 0)  -->

<svg
   version="1.1"
   id="Capa_1"
   x="0px"
   y="0px"
   width="199.12785"
   height="21.752357"
   viewBox="0 0 199.12785 21.752357"
   xml:space="preserve"
   sodipodi:docname="icons.svg"
   inkscape:version="1.1.1 (3bf5ae0d25, 2021-09-20)"
   xmlns:inkscape="http://www.inkscape.org/namespaces/inkscape"
   xmlns:sodipodi="http://sodipodi.sourceforge.net/DTD/sodipodi-0.dtd"
   xmlns="http://www.w3.org/2000/svg"
   xmlns:svg="http://www.w3.org/2000/svg"><defs
   id="defs1277"><style
     id="style1469">.cls-1{fill:#6a00a2;}</style></defs><sodipodi:namedview
   id="namedview1275"
   pagecolor="#ffffff"
   bordercolor="#626666"
   borderopacity="1"
   inkscape:pageshadow="2"
   inkscape:pageopacity="0.0"
   inkscape:pagecheckerboard="true"
   showgrid="false"
   showguides="true"
   inkscape:guide-bbox="true"
   inkscape:zoom="3.3616115"
   inkscape:cx="249.79182"
   inkscape:cy="19.184486"
   inkscape:window-width="3200"
   inkscape:window-height="1721"
   inkscape:window-x="1911"
   inkscape:window-y="-9"
   inkscape:window-maximized="1"
   inkscape:current-layer="Capa_1"
   showborder="true"
   borderlayer="false"
   fit-margin-top="0"
   fit-margin-left="0"
   fit-margin-right="1"
   fit-margin-bottom="0"><sodipodi:guide
     position="24.305384,16.944629"
     orientation="1,0"
     id="guide1487" /></sodipodi:namedview>
<g
   id="g1242"
   transform="matrix(0.05473532,0,0,0.05681753,0,-1.8255787)"
   style="fill:#000000">
	<g
   id="Layer_8_36_"
   style="fill:#000000">
		<path
   d="m 230.174,172.379 c -42.26,0 -76.531,34.263 -76.531,76.529 0,42.275 34.267,76.529 76.531,76.529 42.276,0 76.532,-34.265 76.532,-76.529 0,-42.261 -34.256,-76.529 -76.532,-76.529 z m 0,112.66 c -19.953,0 -36.12,-16.182 -36.12,-36.126 0,-19.956 16.172,-36.124 36.12,-36.124 19.951,0 36.126,16.168 36.126,36.124 0,19.944 -16.175,36.126 -36.126,36.126 z m 27.251,-30.682 c -2.923,12.049 -9.946,20.685 -15.704,19.294 -1.942,-0.471 -3.479,-2.036 -4.553,-4.355 5.143,-1.149 10.67,-8.952 13.187,-19.278 1.929,-7.982 1.565,-15.447 -0.569,-19.978 0.844,-0.187 1.699,-0.208 2.507,-0.012 5.752,1.38 8.049,12.284 5.132,24.329 z M 74.806,331.885 c -6.182,5.926 -6.384,15.743 -0.455,21.911 5.923,6.177 15.735,6.379 21.91,0.458 6.173,-5.93 6.38,-15.748 0.46,-21.921 -5.924,-6.173 -15.735,-6.378 -21.915,-0.448 z m 14.869,16.757 c -2.739,2.625 -7.104,2.537 -9.737,-0.21 -2.635,-2.746 -2.54,-7.103 0.208,-9.74 2.738,-2.627 7.104,-2.539 9.737,0.208 2.636,2.746 2.545,7.108 -0.208,9.742 z M 439.439,125.847 h -8.416 v -10.72 c 0,-3.384 -2.729,-6.123 -6.117,-6.123 H 290.942 l -5.261,-46.425 c 0,-3.384 -2.735,-6.123 -6.126,-6.123 H 167.928 c -3.385,0 -6.126,2.739 -6.126,6.123 l -5.271,46.425 H 90.46 V 98.29 H 52.194 v 10.715 H 22.575 c -3.385,0 -6.124,2.739 -6.124,6.123 v 10.714 H 7.655 c -3.532,0 -7.655,0.92 -7.655,3.502 v 12.09 c 0,2.585 4.123,3.502 7.655,3.502 h 8.796 V 384.52 c 0,3.387 2.739,6.131 6.124,6.131 h 402.336 c 3.384,0 6.12,-2.744 6.12,-6.131 V 144.937 h 8.425 c 3.537,0 7.651,-0.917 7.651,-3.502 v -12.09 c -0.004,-2.583 -4.127,-3.498 -7.668,-3.498 z M 16.452,141.878 H 7.655 c -2.415,0 -4.041,-0.471 -4.59,-0.805 v -11.365 c 0.555,-0.331 2.18,-0.807 4.59,-0.807 h 8.796 v 12.977 z M 174.8,67.681 h 98.723 V 92.165 H 174.8 Z M 125.654,306.735 106.72,350.5 c -0.188,0.495 -0.402,0.985 -0.631,1.467 l -0.819,1.904 c -0.245,0.569 -0.6,1.073 -1.042,1.499 -0.091,0.088 -0.208,0.131 -0.31,0.219 -0.738,1.009 -1.541,1.961 -2.465,2.846 -8.802,8.449 -22.793,8.155 -31.244,-0.646 -8.449,-8.811 -8.157,-22.803 0.645,-31.245 0.878,-0.837 1.823,-1.57 2.792,-2.238 0.336,-0.334 0.705,-0.629 1.137,-0.849 l 44.579,-22.621 c 1.73,-0.875 3.821,-0.585 5.228,0.745 1.407,1.335 1.838,3.371 1.064,5.154 z m 104.353,43.098 c -55.234,0 -100.008,-44.772 -100.008,-100.007 0,-55.231 44.769,-100.008 100.008,-100.008 55.216,0 99.998,44.771 99.998,100.008 0,55.235 -44.772,100.007 -99.998,100.007 z m 147.451,-184.19 c -9.718,0 -17.608,-7.88 -17.608,-17.606 0,-9.721 7.874,-17.606 17.608,-17.606 9.729,0 17.611,7.885 17.611,17.606 -0.018,9.721 -7.89,17.606 -17.611,17.606 z m 66.595,-24.57 c -0.569,0.329 -2.188,0.805 -4.597,0.805 h -8.425 v -12.972 h 8.425 c 2.418,0 4.038,0.476 4.597,0.807 z"
   id="path1239"
   style="fill:#000000" />
	</g>
</g>
<g
   id="g1244"
   transform="translate(-0.20010674,-0.45096035)">
</g>
<g
   id="g1246"
   transform="translate(-0.20010674,-0.45096035)">
</g>
<g
   id="g1248"
   transform="translate(-0.20010674,-0.45096035)">
</g>
<g
   id="g1250"
   transform="translate(-0.20010674,-0.45096035)">
</g>
<g
   id="g1252"
   transform="translate(-0.20010674,-0.45096035)">
</g>
<g
   id="g1254"
   transform="translate(-0.20010674,-0.45096035)">
</g>
<g
   id="g1256"
   transform="translate(-0.20010674,-0.45096035)">
</g>
<g
   id="g1258"
   transform="translate(-0.20010674,-0.45096035)">
</g>
<g
   id="g1260"
   transform="translate(-0.20010674,-0.45096035)">
</g>
<g
   id="g1262"
   transform="translate(-0.20010674,-0.45096035)">
</g>
<g
   id="g1264"
   transform="translate(-0.20010674,-0.45096035)">
</g>
<g
   id="g1266"
   transform="translate(-0.20010674,-0.45096035)">
</g>
<g
   id="g1268"
   transform="translate(-0.20010674,-0.45096035)">
</g>
<g
   id="g1270"
   transform="translate(-0.20010674,-0.45096035)">
</g>
<g
   id="g1272"
   transform="translate(-0.20010674,-0.45096035)">
</g>
<g
   id="g1454"
   transform="matrix(0.0469062,0,0,0.0469062,28.35103,1.518392)"
   style="fill:#000000"
   inkscape:transform-center-x="-1.2620854"
   inkscape:transform-center-y="1.2620854"><g
     id="g1400"
     style="fill:#000000">
	<path
   d="M 374.195,241.486 348.872,169.774 374.44,97.365 c 1.356,-3.843 0.765,-8.104 -1.59,-11.432 -2.354,-3.328 -6.176,-5.306 -10.251,-5.306 0,0 -121.6,0 -129.267,0 -7.979,0 -7.596,-4.415 -7.596,-4.415 0,-27.587 -16.988,-39.896 -36.559,-39.896 H 82.003 c 2.44,-3.742 3.82,-8.172 3.82,-12.816 C 85.823,10.542 75.281,0 62.323,0 h -15 c -12.958,0 -23.5,10.542 -23.5,23.5 0,8.14 4.226,15.629 11,19.889 V 399 h 40 V 237.307 h 115.504 c 1.922,0 5.411,0.578 5.411,6 v 0.614 c 0,8.284 6.716,15 15,15 0.015,0 0.027,-0.002 0.043,-0.002 0.014,0 0.027,0.002 0.041,0.002 H 362.6 c 0.007,0 0.014,0 0.021,0 6.935,0 12.556,-5.622 12.556,-12.557 -0.001,-1.729 -0.35,-3.378 -0.982,-4.878 z"
   id="path1398"
   style="fill:#000000" />
</g><g
     id="g1402"
     style="fill:#000000">
</g><g
     id="g1404"
     style="fill:#000000">
</g><g
     id="g1406"
     style="fill:#000000">
</g><g
     id="g1408"
     style="fill:#000000">
</g><g
     id="g1410"
     style="fill:#000000">
</g><g
     id="g1412"
     style="fill:#000000">
</g><g
     id="g1414"
     style="fill:#000000">
</g><g
     id="g1416"
     style="fill:#000000">
</g><g
     id="g1418"
     style="fill:#000000">
</g><g
     id="g1420"
     style="fill:#000000">
</g><g
     id="g1422"
     style="fill:#000000">
</g><g
     id="g1424"
     style="fill:#000000">
</g><g
     id="g1426"
     style="fill:#000000">
</g><g
     id="g1428"
     style="fill:#000000">
</g><g
     id="g1430"
     style="fill:#000000">
</g></g><g
   id="g1485"
   transform="matrix(0.52335035,0,0,0.52335035,45.9108,-6.2373775)"
   style="fill:#000000"><path
     class="cls-1"
     d="m 33,30 a 2.86,2.86 0 0 0 -2.8,2.8 2.8,2.8 0 0 0 5.6,0 A 2.86,2.86 0 0 0 33,30 Z"
     id="path1475"
     style="fill:#000000" /><path
     class="cls-1"
     d="M 47.9,31.05 A 15.09,15.09 0 0 0 34.6,17.75 v -5.4 h -3.3 v 5.4 A 15.09,15.09 0 0 0 18,31.05 h -5.3 v 3.3 h 5.4 a 15.09,15.09 0 0 0 13.3,13.3 v 5.4 h 3.3 v -5.4 A 15.09,15.09 0 0 0 48,34.35 h 5.3 v -3.3 z m -3.4,3.3 a 12.28,12.28 0 0 1 -3.3,6.5 10.74,10.74 0 0 1 -6.5,3.3 v -1.7 h -3.3 v 1.7 a 12.28,12.28 0 0 1 -6.5,-3.3 10.74,10.74 0 0 1 -3.3,-6.5 h 1.7 v -3.3 h -1.7 a 12.28,12.28 0 0 1 3.3,-6.5 10.74,10.74 0 0 1 6.5,-3.3 V 23 h 3.3 v -1.7 a 12.28,12.28 0 0 1 6.5,3.3 10.75,10.75 0 0 1 3.3,6.5 h -1.7 v 3.3 z"
     id="path1477"
     style="fill:#000000" /></g><style
   type="text/css"
   id="style1547">
	.st0{fill:#504F4B;}
	.st1{fill-rule:evenodd;clip-rule:evenodd;fill:#504F4B;}
	.st2{fill:#FFFFFF;}
	.st3{fill:#B24E11;}
	.st4{fill:#BD4E11;}
	.st5{fill:#4299BC;}
	.st6{fill:#61BC74;}
	.st7{fill:#DDB237;}
	.st8{fill:#42BDB3;}
	.st9{fill:#CF6041;}
	.st10{fill:#333333;}
	.st11{fill:#E2E2E2;}
	.st12{fill:#504F4A;}
</style><g
   id="g1553"
   transform="matrix(0.32963715,0,0,0.32963715,77.299681,0)"
   style="fill:#000000">
	<path
   class="st0"
   d="m 30.1,0 c 0,0 25.6,9.2 21.3,30.9 -1.2,4.1 -3.4,8.4 -9,12 -5.6,3.5 -14,8.9 -6.9,21.9 0,0 -28.3,-10.4 -20.4,-33.5 2.2,-6.5 10.6,-10.5 13,-13.1 2.4,-2.6 7.9,-5.5 2,-18.2 z"
   id="path1549"
   style="fill:#000000" />
	<path
   class="st0"
   d="m 54.8,39.1 c 0,0 -3.6,7.2 -11.6,11.6 -5.4,3 -5.5,11.3 -0.9,14.3 5.4,3.6 14.9,-2.1 12.5,-25.9 z"
   id="path1551"
   style="fill:#000000" />
</g><style
   type="text/css"
   id="style1645">
	.st0{fill:#BD4E11;}
	.st1{fill:#EBEBEB;}
	.st2{fill:#504F4B;}
	.st3{fill:#61BC74;}
	.st4{fill:#F6F6F6;}
	.st5{fill:#232323;}
</style><path
   class="st2"
   d="m 118.79542,9.8421076 c 1.81746,0 3.25888,-1.4414291 3.25888,-3.2275478 0,-1.786119 -1.44142,-3.2275481 -3.25888,-3.2275481 -1.81745,0 -3.29021,1.4414291 -3.29021,3.2275481 0,1.7861188 1.5041,3.2275478 3.29021,3.2275478 z m -8.71125,0 c 2.25615,0 4.07361,-1.7861191 4.07361,-4.0109332 0,-2.2248157 -1.81746,-4.0109348 -4.07361,-4.0109348 -2.25614,0 -4.0736,1.7861191 -4.0736,4.0109348 0,2.2248141 1.81746,4.0109332 4.0736,4.0109332 z m 0.28203,1.4100944 c -2.19349,0 -6.58044,1.09674 -6.58044,3.227549 v 5.452364 h 13.16088 v -5.452364 c 0,-2.162144 -4.38697,-3.227549 -6.58044,-3.227549 z m 7.52049,0 c -0.28201,0 -0.59537,0.03134 -0.90872,0.03134 1.09674,0.783385 1.84879,1.817454 1.84879,3.196213 v 5.452364 h 5.64037 v -5.452364 c 0,-2.162144 -4.38695,-3.227549 -6.58044,-3.227549 z"
   id="path1647"
   style="fill:#000000;stroke-width:0.313354" /><g
   id="g1764"
   transform="matrix(0.05806778,0,0,0.05806778,127.69058,-1.0322162)"
   style="fill:#000000"><path
     style="fill:#000000"
     d="m 403.632,74.18 c -9.113,4.041 -18.573,7.229 -28.28,9.537 C 386.048,73.553 394.09,60.84 398.627,46.65 v 0 c 1.295,-4.051 -3.105,-7.554 -6.763,-5.385 v 0 c -13.504,8.01 -28.05,14.019 -43.235,17.862 -0.881,0.223 -1.79,0.336 -2.702,0.336 -2.766,0 -5.455,-1.027 -7.57,-2.891 -16.156,-14.239 -36.935,-22.081 -58.508,-22.081 -9.335,0 -18.76,1.455 -28.014,4.325 -28.672,8.893 -50.795,32.544 -57.736,61.724 -2.604,10.945 -3.309,21.9 -2.097,32.56 0.139,1.225 -0.44,2.08 -0.797,2.481 -0.627,0.703 -1.516,1.106 -2.439,1.106 -0.103,0 -0.209,-0.005 -0.314,-0.015 C 125.69,130.841 69.094,100.604 29.089,51.532 v 0 c -2.04,-2.503 -5.952,-2.196 -7.578,0.593 v 0 C 13.677,65.565 9.537,80.937 9.537,96.579 c 0,23.972 9.631,46.563 26.36,63.032 -7.035,-1.668 -13.844,-4.295 -20.169,-7.808 v 0 c -3.06,-1.7 -6.825,0.485 -6.868,3.985 v 0 c -0.438,35.612 20.412,67.3 51.646,81.569 -0.629,0.015 -1.258,0.022 -1.888,0.022 -4.951,0 -9.964,-0.478 -14.898,-1.421 v 0 c -3.446,-0.658 -6.341,2.611 -5.271,5.952 v 0 c 10.138,31.651 37.39,54.981 70.002,60.278 -27.066,18.169 -58.585,27.753 -91.39,27.753 L 6.834,329.935 c -3.151,0 -5.816,2.054 -6.619,5.106 -0.791,3.006 0.666,6.177 3.353,7.74 36.966,21.513 79.131,32.883 121.955,32.883 37.485,0 72.549,-7.439 104.219,-22.109 29.033,-13.449 54.689,-32.674 76.255,-57.141 20.09,-22.792 35.8,-49.103 46.692,-78.201 10.383,-27.737 15.871,-57.333 15.871,-85.589 v -1.346 c -10e-4,-4.537 2.051,-8.806 5.631,-11.712 13.585,-11.03 25.415,-24.014 35.16,-38.591 v 0 c 2.573,-3.849 -1.485,-8.673 -5.719,-6.795 z"
     id="path1711" /><g
     id="g1713"
     style="fill:#000000">
</g><g
     id="g1715"
     style="fill:#000000">
</g><g
     id="g1717"
     style="fill:#000000">
</g><g
     id="g1719"
     style="fill:#000000">
</g><g
     id="g1721"
     style="fill:#000000">
</g><g
     id="g1723"
     style="fill:#000000">
</g><g
     id="g1725"
     style="fill:#000000">
</g><g
     id="g1727"
     style="fill:#000000">
</g><g
     id="g1729"
     style="fill:#000000">
</g><g
     id="g1731"
     style="fill:#000000">
</g><g
     id="g1733"
     style="fill:#000000">
</g><g
     id="g1735"
     style="fill:#000000">
</g><g
     id="g1737"
     style="fill:#000000">
</g><g
     id="g1739"
     style="fill:#000000">
</g><g
     id="g1741"
     style="fill:#000000">
</g></g><g
   id="g1899"
   transform="matrix(0.03697072,0,0,0.03697072,156.33508,2.1397206)"><g
     id="g1835">
	<g
   id="g1833">
		<polygon
   points="351.738,9.848 351.738,88.615 430.504,88.615 "
   id="polygon1831" />
	</g>
</g><g
     id="g1841">
	<g
   id="g1839">
		<path
   d="M 332.045,108.308 V 0 H 32.265 V 472.615 H 440.35 V 108.308 Z M 157.068,422.141 H 84.453 V 213.73 h 72.615 z m 115.547,0 H 200 V 272.807 h 72.615 z m 115.547,0 h -72.615 v -90.257 h 72.615 z"
   id="path1837" />
	</g>
</g><g
     id="g1843">
</g><g
     id="g1845">
</g><g
     id="g1847">
</g><g
     id="g1849">
</g><g
     id="g1851">
</g><g
     id="g1853">
</g><g
     id="g1855">
</g><g
     id="g1857">
</g><g
     id="g1859">
</g><g
     id="g1861">
</g><g
     id="g1863">
</g><g
     id="g1865">
</g><g
     id="g1867">
</g><g
     id="g1869">
</g><g
     id="g1871">
</g></g><g
   id="g1991"
   transform="matrix(0.06161998,0,0,0.06161998,181.94808,2.2801918)"><path
     d="m 262.427,7.5 c 0,-4.143 -3.024,-7.5 -7.167,-7.5 h -231 c -4.143,0 -7.833,3.357 -7.833,7.5 v 264 c 0,4.143 3.69,7.5 7.833,7.5 h 132.498 c 2.002,0 3.921,-0.801 5.33,-2.224 l 49.07,-49.567 49.405,-49.405 c 1.455,-1.456 2.032,-3.41 2.01,-5.391 0.008,-0.137 -0.146,-0.274 -0.146,-0.413 z M 237.153,180 163.426,253.394 V 180 Z M 82.01,40 h 115.5 c 4.556,0 8.25,3.944 8.25,8.5 0,4.556 -3.694,8.5 -8.25,8.5 H 82.01 c -4.556,0 -8.25,-3.944 -8.25,-8.5 0,-4.556 3.693,-8.5 8.25,-8.5 z m 0,41 h 115.5 c 4.556,0 8.25,3.944 8.25,8.5 0,4.556 -3.694,8.5 -8.25,8.5 H 82.01 c -4.556,0 -8.25,-3.944 -8.25,-8.5 0,-4.556 3.693,-8.5 8.25,-8.5 z m -8.25,50 c 0,-4.556 3.694,-8 8.25,-8 h 115.5 c 4.556,0 8.25,3.444 8.25,8 0,4.556 -3.694,8 -8.25,8 H 82.01 c -4.557,0 -8.25,-3.444 -8.25,-8 z"
     id="path1938" /><g
     id="g1940">
</g><g
     id="g1942">
</g><g
     id="g1944">
</g><g
     id="g1946">
</g><g
     id="g1948">
</g><g
     id="g1950">
</g><g
     id="g1952">
</g><g
     id="g1954">
</g><g
     id="g1956">
</g><g
     id="g1958">
</g><g
     id="g1960">
</g><g
     id="g1962">
</g><g
     id="g1964">
</g><g
     id="g1966">
</g><g
     id="g1968">
</g></g></svg>
