<svg version="1.1" viewBox="0 0 199.13 21.752" xmlns="http://www.w3.org/2000/svg">
	<g transform="matrix(.054735 0 0 .056818 0 -1.8256)">
		<g id="Layer_8_36_">
			<path d="m230.17 172.38c-42.26 0-76.531 34.263-76.531 76.529 0 42.275 34.267 76.529 76.531 76.529 42.276 0 76.532-34.265 76.532-76.529 0-42.261-34.256-76.529-76.532-76.529zm0 112.66c-19.953 0-36.12-16.182-36.12-36.126 0-19.956 16.172-36.124 36.12-36.124 19.951 0 36.126 16.168 36.126 36.124 0 19.944-16.175 36.126-36.126 36.126zm27.251-30.682c-2.923 12.049-9.946 20.685-15.704 19.294-1.942-0.471-3.479-2.036-4.553-4.355 5.143-1.149 10.67-8.952 13.187-19.278 1.929-7.982 1.565-15.447-0.569-19.978 0.844-0.187 1.699-0.208 2.507-0.012 5.752 1.38 8.049 12.284 5.132 24.329zm-182.62 77.528c-6.182 5.926-6.384 15.743-0.455 21.911 5.923 6.177 15.735 6.379 21.91 0.458 6.173-5.93 6.38-15.748 0.46-21.921-5.924-6.173-15.735-6.378-21.915-0.448zm14.869 16.757c-2.739 2.625-7.104 2.537-9.737-0.21-2.635-2.746-2.54-7.103 0.208-9.74 2.738-2.627 7.104-2.539 9.737 0.208 2.636 2.746 2.545 7.108-0.208 9.742zm349.76-222.8h-8.416v-10.72c0-3.384-2.729-6.123-6.117-6.123h-133.96l-5.261-46.425c0-3.384-2.735-6.123-6.126-6.123h-111.63c-3.385 0-6.126 2.739-6.126 6.123l-5.271 46.425h-66.071v-10.714h-38.266v10.715h-29.619c-3.385 0-6.124 2.739-6.124 6.123v10.714h-8.796c-3.532 0-7.655 0.92-7.655 3.502v12.09c0 2.585 4.123 3.502 7.655 3.502h8.796v239.58c0 3.387 2.739 6.131 6.124 6.131h402.34c3.384 0 6.12-2.744 6.12-6.131v-239.58h8.425c3.537 0 7.651-0.917 7.651-3.502v-12.09c-4e-3 -2.583-4.127-3.498-7.668-3.498zm-422.99 16.031h-8.797c-2.415 0-4.041-0.471-4.59-0.805v-11.365c0.555-0.331 2.18-0.807 4.59-0.807h8.796v12.977zm158.35-74.197h98.723v24.484h-98.723zm-49.146 239.05-18.934 43.765c-0.188 0.495-0.402 0.985-0.631 1.467l-0.819 1.904c-0.245 0.569-0.6 1.073-1.042 1.499-0.091 0.088-0.208 0.131-0.31 0.219-0.738 1.009-1.541 1.961-2.465 2.846-8.802 8.449-22.793 8.155-31.244-0.646-8.449-8.811-8.157-22.803 0.645-31.245 0.878-0.837 1.823-1.57 2.792-2.238 0.336-0.334 0.705-0.629 1.137-0.849l44.579-22.621c1.73-0.875 3.821-0.585 5.228 0.745 1.407 1.335 1.838 3.371 1.064 5.154zm104.35 43.098c-55.234 0-100.01-44.772-100.01-100.01 0-55.231 44.769-100.01 100.01-100.01 55.216 0 99.998 44.771 99.998 100.01 0 55.235-44.772 100.01-99.998 100.01zm147.45-184.19c-9.718 0-17.608-7.88-17.608-17.606 0-9.721 7.874-17.606 17.608-17.606 9.729 0 17.611 7.885 17.611 17.606-0.018 9.721-7.89 17.606-17.611 17.606zm66.595-24.57c-0.569 0.329-2.188 0.805-4.597 0.805h-8.425v-12.972h8.425c2.418 0 4.038 0.476 4.597 0.807z" />
		</g>
	</g>
	<g transform="matrix(.046906 0 0 .046906 28.351 1.5184)">
		<g>
			<path d="m374.2 241.49-25.323-71.712 25.568-72.409c1.356-3.843 0.765-8.104-1.59-11.432-2.354-3.328-6.176-5.306-10.251-5.306h-129.27c-7.979 0-7.596-4.415-7.596-4.415 0-27.587-16.988-39.896-36.559-39.896h-107.17c2.44-3.742 3.82-8.172 3.82-12.816 0-12.958-10.542-23.5-23.5-23.5h-15c-12.958 0-23.5 10.542-23.5 23.5 0 8.14 4.226 15.629 11 19.889v355.61h40v-161.69h115.5c1.922 0 5.411 0.578 5.411 6v0.614c0 8.284 6.716 15 15 15 0.015 0 0.027-2e-3 0.043-2e-3 0.014 0 0.027 2e-3 0.041 2e-3h151.78 0.021c6.935 0 12.556-5.622 12.556-12.557-1e-3 -1.729-0.35-3.378-0.982-4.878z" />
		</g>
	</g>
	<g transform="matrix(.52335 0 0 .52335 45.911 -6.2374)">
		<path class="cls-1" d="m33 30a2.86 2.86 0 0 0-2.8 2.8 2.8 2.8 0 0 0 5.6 0 2.86 2.86 0 0 0-2.8-2.8z" />
		<path class="cls-1" d="m47.9 31.05a15.09 15.09 0 0 0-13.3-13.3v-5.4h-3.3v5.4a15.09 15.09 0 0 0-13.3 13.3h-5.3v3.3h5.4a15.09 15.09 0 0 0 13.3 13.3v5.4h3.3v-5.4a15.09 15.09 0 0 0 13.3-13.3h5.3v-3.3zm-3.4 3.3a12.28 12.28 0 0 1-3.3 6.5 10.74 10.74 0 0 1-6.5 3.3v-1.7h-3.3v1.7a12.28 12.28 0 0 1-6.5-3.3 10.74 10.74 0 0 1-3.3-6.5h1.7v-3.3h-1.7a12.28 12.28 0 0 1 3.3-6.5 10.74 10.74 0 0 1 6.5-3.3v1.75h3.3v-1.7a12.28 12.28 0 0 1 6.5 3.3 10.75 10.75 0 0 1 3.3 6.5h-1.7v3.3z" />
	</g>
	<g transform="matrix(.32964 0 0 .32964 77.3 0)">
		<path class="st0" d="m30.1 0s25.6 9.2 21.3 30.9c-1.2 4.1-3.4 8.4-9 12-5.6 3.5-14 8.9-6.9 21.9 0 0-28.3-10.4-20.4-33.5 2.2-6.5 10.6-10.5 13-13.1s7.9-5.5 2-18.2z" />
		<path class="st0" d="m54.8 39.1s-3.6 7.2-11.6 11.6c-5.4 3-5.5 11.3-0.9 14.3 5.4 3.6 14.9-2.1 12.5-25.9z" />
	</g>
	<path class="st2" d="m118.8 9.8421c1.8175 0 3.2589-1.4414 3.2589-3.2275 0-1.7861-1.4414-3.2275-3.2589-3.2275-1.8174 0-3.2902 1.4414-3.2902 3.2275 0 1.7861 1.5041 3.2275 3.2902 3.2275zm-8.7112 0c2.2562 0 4.0736-1.7861 4.0736-4.0109 0-2.2248-1.8175-4.0109-4.0736-4.0109-2.2561 0-4.0736 1.7861-4.0736 4.0109 0 2.2248 1.8175 4.0109 4.0736 4.0109zm0.28203 1.4101c-2.1935 0-6.5804 1.0967-6.5804 3.2275v5.4524h13.161v-5.4524c0-2.1621-4.387-3.2275-6.5804-3.2275zm7.5205 0c-0.28201 0-0.59537 0.03134-0.90872 0.03134 1.0967 0.78338 1.8488 1.8175 1.8488 3.1962v5.4524h5.6404v-5.4524c0-2.1621-4.387-3.2275-6.5804-3.2275z" stroke-width=".31335" />
	<g transform="matrix(.058068 0 0 .058068 127.69 -1.0322)">
		<path d="m403.63 74.18c-9.113 4.041-18.573 7.229-28.28 9.537 10.696-10.164 18.738-22.877 23.275-37.067 1.295-4.051-3.105-7.554-6.763-5.385-13.504 8.01-28.05 14.019-43.235 17.862-0.881 0.223-1.79 0.336-2.702 0.336-2.766 0-5.455-1.027-7.57-2.891-16.156-14.239-36.935-22.081-58.508-22.081-9.335 0-18.76 1.455-28.014 4.325-28.672 8.893-50.795 32.544-57.736 61.724-2.604 10.945-3.309 21.9-2.097 32.56 0.139 1.225-0.44 2.08-0.797 2.481-0.627 0.703-1.516 1.106-2.439 1.106-0.103 0-0.209-5e-3 -0.314-0.015-62.762-5.831-119.36-36.068-159.36-85.14-2.04-2.503-5.952-2.196-7.578 0.593-7.834 13.44-11.974 28.812-11.974 44.454 0 23.972 9.631 46.563 26.36 63.032-7.035-1.668-13.844-4.295-20.169-7.808-3.06-1.7-6.825 0.485-6.868 3.985-0.438 35.612 20.412 67.3 51.646 81.569-0.629 0.015-1.258 0.022-1.888 0.022-4.951 0-9.964-0.478-14.898-1.421-3.446-0.658-6.341 2.611-5.271 5.952 10.138 31.651 37.39 54.981 70.002 60.278-27.066 18.169-58.585 27.753-91.39 27.753l-10.227-6e-3c-3.151 0-5.816 2.054-6.619 5.106-0.791 3.006 0.666 6.177 3.353 7.74 36.966 21.513 79.131 32.883 121.96 32.883 37.485 0 72.549-7.439 104.22-22.109 29.033-13.449 54.689-32.674 76.255-57.141 20.09-22.792 35.8-49.103 46.692-78.201 10.383-27.737 15.871-57.333 15.871-85.589v-1.346c-1e-3 -4.537 2.051-8.806 5.631-11.712 13.585-11.03 25.415-24.014 35.16-38.591 2.573-3.849-1.485-8.673-5.719-6.795z" />
	</g>
	<g transform="matrix(.036971 0 0 .036971 156.34 2.1397)">
		<g>
			<g>
				<polygon points="351.74 9.848 351.74 88.615 430.5 88.615" />
				<path d="m332.04 108.31v-108.31h-299.78v472.62h408.08v-364.31zm-174.98 313.83h-72.615v-208.41h72.615zm115.55 0h-72.615v-149.33h72.615zm115.55 0h-72.615v-90.257h72.615z" />
			</g>
		</g>
	</g>
	<g transform="matrix(.06162 0 0 .06162 181.95 2.2802)">
		<path d="m262.43 7.5c0-4.143-3.024-7.5-7.167-7.5h-231c-4.143 0-7.833 3.357-7.833 7.5v264c0 4.143 3.69 7.5 7.833 7.5h132.5c2.002 0 3.921-0.801 5.33-2.224l49.07-49.567 49.405-49.405c1.455-1.456 2.032-3.41 2.01-5.391 8e-3 -0.137-0.146-0.274-0.146-0.413zm-25.274 172.5-73.727 73.394v-73.394zm-155.14-140h115.5c4.556 0 8.25 3.944 8.25 8.5s-3.694 8.5-8.25 8.5h-115.5c-4.556 0-8.25-3.944-8.25-8.5s3.693-8.5 8.25-8.5zm0 41h115.5c4.556 0 8.25 3.944 8.25 8.5s-3.694 8.5-8.25 8.5h-115.5c-4.556 0-8.25-3.944-8.25-8.5s3.693-8.5 8.25-8.5zm-8.25 50c0-4.556 3.694-8 8.25-8h115.5c4.556 0 8.25 3.444 8.25 8s-3.694 8-8.25 8h-115.5c-4.557 0-8.25-3.444-8.25-8z" />
	</g>
</svg>
