<svg width="199" height="24" viewBox="0 0 199 24" fill="none" xmlns="http://www.w3.org/2000/svg">
	<g id="Frame 1">
		<g id="camera">
			<g id="Layer_8_36_">
				<path id="Vector" d="M12.3554 8.32494C10.0869 8.32494 8.24731 10.7855 8.24731 13.8208C8.24731 16.8568 10.0867 19.3167 12.3554 19.3167C14.6247 19.3167 16.4635 16.856 16.4635 13.8208C16.4635 10.7859 14.6247 8.32494 12.3554 8.32494ZM12.3554 16.4155C11.2843 16.4155 10.4165 15.2534 10.4165 13.8212C10.4165 12.388 11.2846 11.227 12.3554 11.227C13.4263 11.227 14.2946 12.388 14.2946 13.8212C14.2946 15.2534 13.4263 16.4155 12.3554 16.4155ZM13.8182 14.2121C13.6613 15.0774 13.2843 15.6976 12.9752 15.5977C12.871 15.5639 12.7885 15.4515 12.7308 15.285C13.0069 15.2025 13.3036 14.6421 13.4387 13.9005C13.5422 13.3273 13.5227 12.7912 13.4081 12.4658C13.4534 12.4524 13.4993 12.4509 13.5427 12.465C13.8514 12.5641 13.9747 13.3471 13.8182 14.2121ZM4.01547 19.7798C3.68363 20.2053 3.67279 20.9103 3.99104 21.3533C4.30898 21.7969 4.83567 21.8114 5.16714 21.3862C5.4985 20.9603 5.50961 20.2552 5.19183 19.8119C4.87384 19.3686 4.3472 19.3539 4.01547 19.7798ZM4.81361 20.9832C4.66659 21.1717 4.43228 21.1653 4.29095 20.9681C4.1495 20.7709 4.1546 20.458 4.30211 20.2686C4.44908 20.0799 4.68344 20.0863 4.82478 20.2835C4.96627 20.4807 4.96139 20.794 4.81361 20.9832ZM23.5884 4.98327H23.1366V4.21342C23.1366 3.9704 22.9901 3.7737 22.8083 3.7737H15.6173L15.3349 0.439719C15.3349 0.196699 15.1881 0 15.0061 0H9.01411C8.83241 0 8.68528 0.196699 8.68528 0.439719L8.40234 3.7737H4.85575V3.00428H2.80169V3.77377H1.21179C1.03009 3.77377 0.883064 3.97047 0.883064 4.21349V4.98291H0.410908C0.221316 4.98291 0 5.04898 0 5.2344V6.10264C0 6.28828 0.221316 6.35413 0.410908 6.35413H0.883064V23.5597C0.883064 23.8029 1.03009 24 1.21179 24H22.8086C22.9902 24 23.1371 23.8029 23.1371 23.5597V6.35421H23.5893C23.7792 6.35421 24 6.28835 24 6.10271V5.23448C23.9998 5.04898 23.7785 4.98327 23.5884 4.98327ZM0.883117 6.13453H0.410908C0.281275 6.13453 0.193994 6.1007 0.164524 6.07672V5.26054C0.194316 5.23677 0.281543 5.20259 0.410908 5.20259H0.883064V6.13453H0.883117ZM9.38299 0.806116H14.6823V2.56442H9.38299V0.806116ZM6.74491 17.9736L5.72856 21.1166C5.71847 21.1521 5.70698 21.1873 5.69469 21.2219L5.65073 21.3587C5.63758 21.3995 5.61852 21.4357 5.59479 21.4663C5.58991 21.4726 5.58363 21.4757 5.57815 21.482C5.53854 21.5545 5.49544 21.6229 5.44584 21.6864C4.97336 22.2932 4.22235 22.2721 3.76871 21.64C3.31518 21.0073 3.33085 20.0025 3.80333 19.3962C3.85046 19.3361 3.90119 19.2834 3.9532 19.2355C3.97124 19.2115 3.99104 19.1903 4.01423 19.1745L6.40716 17.55C6.50003 17.4872 6.61227 17.508 6.6878 17.6035C6.76332 17.6994 6.78646 17.8456 6.74491 17.9736ZM12.3464 21.0687C9.38154 21.0687 6.97814 17.8534 6.97814 13.8867C6.97814 9.92036 9.38127 6.70473 12.3464 6.70473C15.3103 6.70473 17.7141 9.91993 17.7141 13.8867C17.7141 17.8534 15.3109 21.0687 12.3464 21.0687ZM20.2614 7.84119C19.7397 7.84119 19.3162 7.2753 19.3162 6.57683C19.3162 5.87872 19.7388 5.31247 20.2614 5.31247C20.7836 5.31247 21.2067 5.87872 21.2067 6.57683C21.2057 7.27494 20.7832 7.84119 20.2614 7.84119ZM23.8361 6.07672C23.8055 6.10034 23.7186 6.13453 23.5893 6.13453H23.1371V5.20295H23.5893C23.7191 5.20295 23.8061 5.23713 23.8361 5.2609V6.07672Z" fill="black" />
			</g>
		</g>
		<g id="event" clip-path="url(#clip0_3_741)">
			<g id="Group">
				<path id="Vector_2" d="M47.508 14.5255L45.9848 10.212L47.5227 5.85654C47.6043 5.62538 47.5687 5.36908 47.4271 5.1689C47.2855 4.96872 47.0556 4.84974 46.8105 4.84974C46.8105 4.84974 39.4962 4.84974 39.035 4.84974C38.5551 4.84974 38.5781 4.58418 38.5781 4.58418C38.5781 2.92481 37.5563 2.18442 36.3791 2.18442H29.9325C30.0793 1.95934 30.1623 1.69287 30.1623 1.41353C30.1623 0.634105 29.5282 0 28.7488 0H27.8465C27.0671 0 26.433 0.634105 26.433 1.41353C26.433 1.90316 26.6872 2.35362 27.0946 2.60986V24H29.5007V14.2741H36.4483C36.5639 14.2741 36.7737 14.3089 36.7737 14.635V14.6719C36.7737 15.1702 37.1777 15.5742 37.676 15.5742C37.6769 15.5742 37.6776 15.5741 37.6786 15.5741C37.6794 15.5741 37.6802 15.5742 37.681 15.5742H46.8105C46.811 15.5742 46.8114 15.5742 46.8118 15.5742C47.229 15.5742 47.5671 15.236 47.5671 14.8189C47.567 14.7149 47.546 14.6157 47.508 14.5255Z" fill="black" />
			</g>
		</g>
		<g id="mission">
			<path id="Vector_3" d="M62 10.9091C61.7317 10.9147 61.4759 11.0238 61.2862 11.2135C61.0964 11.4033 60.9874 11.659 60.9818 11.9273C60.9818 12.1973 61.0891 12.4563 61.28 12.6473C61.471 12.8382 61.73 12.9455 62 12.9455C62.27 12.9455 62.529 12.8382 62.72 12.6473C62.9109 12.4563 63.0182 12.1973 63.0182 11.9273C63.0126 11.659 62.9035 11.4033 62.7138 11.2135C62.524 11.0238 62.2683 10.9147 62 10.9091Z" fill="black" />
			<path id="Vector_4" d="M67.4182 11.2909C67.2786 10.0563 66.7242 8.90558 65.8457 8.02702C64.9671 7.14846 63.8164 6.59407 62.5818 6.45454V4.49091H61.3818V6.45454C60.1472 6.59407 58.9965 7.14846 58.1179 8.02702C57.2394 8.90558 56.685 10.0563 56.5454 11.2909H54.6182V12.4909H56.5818C56.7213 13.7255 57.2757 14.8762 58.1543 15.7548C59.0328 16.6334 60.1836 17.1877 61.4182 17.3273V19.2909H62.6182V17.3273C63.8528 17.1877 65.0035 16.6334 65.8821 15.7548C66.7606 14.8762 67.315 13.7255 67.4545 12.4909H69.3818V11.2909H67.4182ZM66.1818 12.4909C66.0303 13.3821 65.6118 14.2063 64.9818 14.8545C64.3579 15.5179 63.5218 15.9423 62.6182 16.0545V15.4364H61.4182V16.0545C60.527 15.903 59.7028 15.4846 59.0545 14.8545C58.3912 14.2307 57.9667 13.3946 57.8545 12.4909H58.4727V11.2909H57.8545C58.0061 10.3997 58.4245 9.57552 59.0545 8.92727C59.6784 8.26394 60.5145 7.83948 61.4182 7.72727V8.36363H62.6182V7.74545C63.5093 7.89699 64.3335 8.31543 64.9818 8.94545C65.6449 9.56952 66.0693 10.4055 66.1818 11.3091H65.5636V12.5091L66.1818 12.4909Z" fill="black" />
		</g>
		<g id="alert">
			<g id="Group_2">
				<path id="Vector_5" d="M85.9454 0C85.9454 0 95.2545 3.34545 93.6909 11.2364C93.2545 12.7273 92.4545 14.2909 90.4181 15.6C88.3818 16.8727 85.3272 18.8364 87.909 23.5636C87.909 23.5636 77.6181 19.7818 80.4909 11.3818C81.2909 9.01818 84.3454 7.56364 85.2181 6.61818C86.0909 5.67273 88.0909 4.61818 85.9454 0Z" fill="black" />
				<path id="Vector_6" d="M94.9272 14.2182C94.9272 14.2182 93.6181 16.8364 90.709 18.4364C88.7454 19.5273 88.709 22.5455 90.3818 23.6364C92.3454 24.9455 95.7999 22.8727 94.9272 14.2182Z" fill="black" />
			</g>
		</g>
		<g id="people">
			<path id="Vector_7" d="M117.418 12.2182C119.527 12.2182 121.2 10.5455 121.2 8.47275C121.2 6.40003 119.527 4.7273 117.418 4.7273C115.309 4.7273 113.6 6.40003 113.6 8.47275C113.6 10.5455 115.345 12.2182 117.418 12.2182ZM107.309 12.2182C109.927 12.2182 112.036 10.1455 112.036 7.56366C112.036 4.98185 109.927 2.90912 107.309 2.90912C104.691 2.90912 102.582 4.98185 102.582 7.56366C102.582 10.1455 104.691 12.2182 107.309 12.2182ZM107.636 13.8546C105.091 13.8546 100 15.1273 100 17.6V23.9273H115.273V17.6C115.273 15.0909 110.182 13.8546 107.636 13.8546ZM116.364 13.8546C116.036 13.8546 115.673 13.8909 115.309 13.8909C116.582 14.8 117.455 16 117.455 17.6V23.9273H124V17.6C124 15.0909 118.909 13.8546 116.364 13.8546Z" fill="black" />
		</g>
		<g id="twitter" clip-path="url(#clip1_3_741)">
			<path id="Vector_8" d="M148.618 4.34063C148.085 4.57709 147.532 4.76363 146.964 4.89868C147.589 4.30394 148.06 3.56005 148.325 2.72973C148.401 2.49268 148.144 2.28771 147.93 2.41463C147.14 2.88333 146.288 3.23494 145.4 3.45981C145.348 3.47286 145.295 3.47947 145.242 3.47947C145.08 3.47947 144.923 3.41938 144.799 3.31031C143.853 2.47712 142.638 2.01825 141.375 2.01825C140.829 2.01825 140.277 2.10339 139.736 2.27132C138.058 2.79169 136.764 4.17562 136.358 5.88307C136.205 6.52351 136.164 7.16454 136.235 7.7883C136.243 7.85998 136.209 7.91001 136.188 7.93348C136.152 7.97461 136.1 7.99819 136.046 7.99819C136.039 7.99819 136.033 7.9979 136.027 7.99732C132.355 7.65612 129.043 5.88682 126.702 3.01539C126.583 2.86893 126.354 2.8869 126.259 3.05009C125.8 3.83653 125.558 4.73601 125.558 5.6513C125.558 7.054 126.122 8.3759 127.1 9.33958C126.689 9.24198 126.29 9.08826 125.92 8.8827C125.741 8.78322 125.521 8.91108 125.518 9.11588C125.493 11.1997 126.713 13.0539 128.54 13.8888C128.504 13.8897 128.467 13.8901 128.43 13.8901C128.14 13.8901 127.847 13.8622 127.558 13.807C127.357 13.7685 127.187 13.9598 127.25 14.1553C127.843 16.0073 129.438 17.3724 131.346 17.6824C129.762 18.7455 127.918 19.3063 125.998 19.3063L125.4 19.306C125.215 19.306 125.06 19.4262 125.013 19.6048C124.966 19.7807 125.052 19.9662 125.209 20.0577C127.372 21.3165 129.839 21.9818 132.345 21.9818C134.538 21.9818 136.59 21.5465 138.443 20.6881C140.142 19.9011 141.643 18.7762 142.905 17.3445C144.081 16.0109 145 14.4713 145.637 12.7686C146.245 11.1456 146.566 9.41383 146.566 7.76045V7.68169C146.566 7.41621 146.686 7.16641 146.896 6.99637C147.69 6.35095 148.383 5.5912 148.953 4.73824C149.103 4.51301 148.866 4.23074 148.618 4.34063Z" fill="black" />
		</g>
		<g id="report">
			<g id="Group_3">
				<g id="Group_4">
					<path id="Vector_9" d="M167.862 0.500122V4.50001H171.862L167.862 0.500122Z" fill="black" />
				</g>
			</g>
			<g id="Group_5">
				<g id="Group_6">
					<path id="Vector_10" d="M166.862 5.50002V0H151.638V24H172.362V5.50002H166.862ZM157.976 21.4369H154.289V10.8535H157.976V21.4369V21.4369ZM163.844 21.4369H160.156V13.8535H163.844V21.4369ZM169.711 21.4369H166.024V16.8535H169.711V21.4369Z" fill="black" />
				</g>
			</g>
		</g>
		<g id="communication">
			<path id="Vector_11" d="M197.574 0.645161C197.574 0.288774 197.314 0 196.958 0H177.087C176.731 0 176.413 0.288774 176.413 0.645161V23.3548C176.413 23.7112 176.731 24 177.087 24H188.485C188.657 24 188.822 23.9311 188.943 23.8087L193.164 19.5449L197.414 15.295C197.539 15.1697 197.589 15.0016 197.587 14.8312C197.588 14.8194 197.574 14.8077 197.574 14.7957V0.645161V0.645161ZM195.4 15.4839L189.058 21.7973V15.4839H195.4ZM182.055 3.44086H191.99C192.382 3.44086 192.7 3.78013 192.7 4.17204C192.7 4.56396 192.382 4.90323 191.99 4.90323H182.055C181.663 4.90323 181.345 4.56396 181.345 4.17204C181.345 3.78013 181.663 3.44086 182.055 3.44086ZM182.055 6.96774H191.99C192.382 6.96774 192.7 7.30701 192.7 7.69892C192.7 8.09084 192.382 8.43011 191.99 8.43011H182.055C181.663 8.43011 181.345 8.09084 181.345 7.69892C181.345 7.30701 181.663 6.96774 182.055 6.96774ZM181.345 11.2688C181.345 10.8769 181.663 10.5806 182.055 10.5806H191.99C192.382 10.5806 192.7 10.8769 192.7 11.2688C192.7 11.6607 192.382 11.957 191.99 11.957H182.055C181.663 11.957 181.345 11.6607 181.345 11.2688Z" fill="black" />
		</g>
	</g>
	<defs>
		<clipPath id="clip0_3_741">
			<rect width="24" height="24" fill="black" transform="translate(25)" />
		</clipPath>
		<clipPath id="clip1_3_741">
			<rect width="24" height="24" fill="black" transform="translate(125)" />
		</clipPath>
	</defs>
</svg>
