<svg width="224" height="24" viewBox="0 0 224 24" fill="none" xmlns="http://www.w3.org/2000/svg">
<g id="safers">
<g id="camera">
<path id="Vector" d="M12.3554 8.32494C10.0869 8.32494 8.24731 10.7855 8.24731 13.8208C8.24731 16.8568 10.0867 19.3167 12.3554 19.3167C14.6247 19.3167 16.4635 16.856 16.4635 13.8208C16.4635 10.7859 14.6247 8.32494 12.3554 8.32494ZM12.3554 16.4155C11.2843 16.4155 10.4165 15.2534 10.4165 13.8212C10.4165 12.388 11.2846 11.227 12.3554 11.227C13.4263 11.227 14.2946 12.388 14.2946 13.8212C14.2946 15.2534 13.4263 16.4155 12.3554 16.4155ZM13.8182 14.2121C13.6613 15.0774 13.2843 15.6976 12.9752 15.5977C12.871 15.5639 12.7885 15.4515 12.7308 15.285C13.0069 15.2025 13.3036 14.6421 13.4387 13.9005C13.5422 13.3273 13.5227 12.7912 13.4081 12.4658C13.4534 12.4524 13.4993 12.4509 13.5427 12.465C13.8514 12.5641 13.9747 13.3471 13.8182 14.2121ZM4.01547 19.7798C3.68363 20.2053 3.67279 20.9103 3.99104 21.3533C4.30898 21.7969 4.83567 21.8114 5.16714 21.3862C5.4985 20.9603 5.50961 20.2552 5.19183 19.8119C4.87384 19.3686 4.3472 19.3539 4.01547 19.7798ZM4.81361 20.9832C4.66659 21.1717 4.43228 21.1653 4.29095 20.9681C4.1495 20.7709 4.1546 20.458 4.30211 20.2686C4.44908 20.0799 4.68344 20.0863 4.82478 20.2835C4.96627 20.4807 4.96139 20.794 4.81361 20.9832ZM23.5884 4.98327H23.1366V4.21342C23.1366 3.9704 22.9901 3.7737 22.8083 3.7737H15.6173L15.3349 0.439719C15.3349 0.196699 15.1881 0 15.0061 0H9.01411C8.83241 0 8.68528 0.196699 8.68528 0.439719L8.40234 3.7737H4.85575V3.00428H2.80169V3.77377H1.21179C1.03009 3.77377 0.883064 3.97047 0.883064 4.21349V4.98291H0.410908C0.221316 4.98291 0 5.04898 0 5.2344V6.10264C0 6.28828 0.221316 6.35413 0.410908 6.35413H0.883064V23.5597C0.883064 23.8029 1.03009 24 1.21179 24H22.8086C22.9902 24 23.1371 23.8029 23.1371 23.5597V6.35421H23.5893C23.7792 6.35421 24 6.28835 24 6.10271V5.23448C23.9998 5.04898 23.7785 4.98327 23.5884 4.98327ZM0.883117 6.13453H0.410908C0.281275 6.13453 0.193994 6.1007 0.164524 6.07672V5.26054C0.194316 5.23677 0.281543 5.20259 0.410908 5.20259H0.883064V6.13453H0.883117ZM9.38299 0.806116H14.6823V2.56442H9.38299V0.806116ZM6.74491 17.9736L5.72856 21.1166C5.71847 21.1521 5.70698 21.1873 5.69469 21.2219L5.65073 21.3587C5.63758 21.3995 5.61852 21.4357 5.59479 21.4663C5.58991 21.4726 5.58363 21.4757 5.57815 21.482C5.53854 21.5545 5.49544 21.6229 5.44584 21.6864C4.97336 22.2932 4.22235 22.2721 3.76871 21.64C3.31518 21.0073 3.33085 20.0025 3.80333 19.3962C3.85046 19.3361 3.90119 19.2834 3.9532 19.2355C3.97124 19.2115 3.99104 19.1903 4.01423 19.1745L6.40716 17.55C6.50003 17.4872 6.61227 17.508 6.6878 17.6035C6.76332 17.6994 6.78646 17.8456 6.74491 17.9736ZM12.3464 21.0687C9.38154 21.0687 6.97814 17.8534 6.97814 13.8867C6.97814 9.92036 9.38127 6.70473 12.3464 6.70473C15.3103 6.70473 17.7141 9.91993 17.7141 13.8867C17.7141 17.8534 15.3109 21.0687 12.3464 21.0687ZM20.2614 7.84119C19.7397 7.84119 19.3162 7.2753 19.3162 6.57683C19.3162 5.87872 19.7388 5.31247 20.2614 5.31247C20.7836 5.31247 21.2067 5.87872 21.2067 6.57683C21.2057 7.27494 20.7832 7.84119 20.2614 7.84119ZM23.8361 6.07672C23.8055 6.10034 23.7186 6.13453 23.5893 6.13453H23.1371V5.20295H23.5893C23.7191 5.20295 23.8061 5.23713 23.8361 5.2609V6.07672Z" fill="black"/>
</g>
<g id="target">
<path id="Vector_2" d="M37 10.4078C36.5639 10.4169 36.1481 10.5937 35.8397 10.9014C35.5312 11.2091 35.3539 11.6239 35.3448 12.0589C35.3448 12.4968 35.5192 12.9168 35.8296 13.2265C36.14 13.5361 36.561 13.71 37 13.71C37.439 13.71 37.86 13.5361 38.1704 13.2265C38.4808 12.9168 38.6552 12.4968 38.6552 12.0589C38.6461 11.6239 38.4688 11.2091 38.1604 10.9014C37.8519 10.5937 37.4362 10.4169 37 10.4078Z" fill="black"/>
<path id="Vector_3" d="M45.8079 11.027C45.5811 9.02495 44.6798 7.15893 43.2516 5.73424C41.8234 4.30954 39.9528 3.41053 37.9458 3.18428V0H35.9951V3.18428C33.9881 3.41053 32.1174 4.30954 30.6892 5.73424C29.261 7.15893 28.3598 9.02495 28.133 11.027H25V12.973H28.1921C28.4189 14.975 29.3202 16.8411 30.7484 18.2658C32.1766 19.6905 34.0472 20.5895 36.0542 20.8157V24H38.0049V20.8157C40.0119 20.5895 41.8826 19.6905 43.3108 18.2658C44.739 16.8411 45.6402 14.975 45.867 12.973H49V11.027H45.8079ZM43.798 12.973C43.5517 14.4181 42.8715 15.7547 41.8473 16.8059C40.8331 17.8816 39.474 18.5699 38.0049 18.7518V17.7494H36.0542V18.7518C34.6055 18.5061 33.2656 17.8276 32.2118 16.8059C31.1335 15.7942 30.4435 14.4384 30.2611 12.973H31.266V11.027H30.2611C30.5074 9.58187 31.1876 8.24533 32.2118 7.1941C33.226 6.11843 34.5851 5.43011 36.0542 5.24816V6.2801H38.0049V5.27764C39.4536 5.52338 40.7935 6.20193 41.8473 7.22359C42.9252 8.23559 43.6151 9.59122 43.798 11.0565H42.7931V13.0025L43.798 12.973Z" fill="black"/>
</g>
<g id="people">
<path id="Vector_4" d="M67.4182 10.6298C69.5273 10.6298 71.2 8.71972 71.2 6.35294C71.2 3.98616 69.5273 2.07612 67.4182 2.07612C65.3091 2.07612 63.6 3.98616 63.6 6.35294C63.6 8.71972 65.3455 10.6298 67.4182 10.6298ZM57.3091 10.6298C59.9273 10.6298 62.0364 8.26297 62.0364 5.31488C62.0364 2.36678 59.9273 0 57.3091 0C54.6909 0 52.5818 2.36678 52.5818 5.31488C52.5818 8.26297 54.6909 10.6298 57.3091 10.6298ZM57.6364 12.4983C55.0909 12.4983 50 13.9516 50 16.7751V24H65.2727V16.7751C65.2727 13.91 60.1818 12.4983 57.6364 12.4983ZM66.3636 12.4983C66.0364 12.4983 65.6727 12.5398 65.3091 12.5398C66.5818 13.5779 67.4545 14.9481 67.4545 16.7751V24H74V16.7751C74 13.91 68.9091 12.4983 66.3636 12.4983Z" fill="black"/>
</g>
<g id="twitter">
<path id="Vector_5" d="M98.6183 2.79194C98.0851 3.07621 97.5315 3.30047 96.9635 3.46283C97.5894 2.74784 98.06 1.85353 98.3254 0.855331C98.4012 0.570362 98.1437 0.323941 97.9297 0.476521C97.1395 1.03999 96.2884 1.46269 95.3998 1.73303C95.3483 1.74872 95.2951 1.75667 95.2417 1.75667C95.0799 1.75667 94.9225 1.68442 94.7988 1.5533C93.8534 0.55165 92.6375 0 91.3752 0C90.829 0 90.2775 0.102353 89.736 0.304245C88.0582 0.929827 86.7637 2.59357 86.3576 4.64625C86.2052 5.41618 86.164 6.18682 86.2349 6.9367C86.243 7.02288 86.2091 7.08302 86.1882 7.11123C86.1516 7.16068 86.0995 7.18903 86.0455 7.18903C86.0395 7.18903 86.0333 7.18868 86.0271 7.18798C82.3547 6.77779 79.043 4.65075 76.7021 1.19876C76.5827 1.02268 76.3538 1.04428 76.2587 1.24047C75.8003 2.18592 75.558 3.26727 75.558 4.36761C75.558 6.05394 76.1216 7.64311 77.1005 8.80163C76.6888 8.6843 76.2904 8.4995 75.9203 8.25238C75.7412 8.13279 75.5209 8.28649 75.5184 8.5327C75.4928 11.0378 76.7128 13.267 78.5405 14.2707C78.5037 14.2718 78.4668 14.2723 78.43 14.2723C78.1403 14.2723 77.8469 14.2386 77.5582 14.1723C77.3566 14.126 77.1872 14.356 77.2498 14.591C77.843 16.8175 79.4377 18.4587 81.3459 18.8313C79.7622 20.1094 77.9179 20.7836 75.9983 20.7836L75.3999 20.7832C75.2155 20.7832 75.0595 20.9277 75.0126 21.1424C74.9663 21.3538 75.0515 21.5769 75.2088 21.6868C77.3718 23.2002 79.8391 24 82.3449 24C84.5383 24 86.5901 23.4767 88.4432 22.4447C90.1421 21.4987 91.6433 20.1463 92.9052 18.4251C94.0808 16.8218 95.0001 14.9709 95.6374 12.924C96.2449 10.9728 96.5661 8.8909 96.5661 6.90322V6.80853C96.566 6.48938 96.6861 6.18907 96.8956 5.98465C97.6905 5.20874 98.3827 4.29537 98.9529 3.26994C99.1035 2.99918 98.866 2.65984 98.6183 2.79194Z" fill="black"/>
</g>
<g id="fire">
<path id="Vector_6" d="M109.486 0.0020752C109.486 0.0020752 124.3 3.34753 121.812 11.2384C121.117 12.7293 119.844 14.293 116.604 15.6021C113.363 16.8748 108.502 18.8384 112.611 23.5657C112.611 23.5657 96.234 19.7839 100.806 11.3839C102.079 9.02026 106.94 7.56571 108.328 6.62026C109.717 5.6748 112.9 4.62026 109.486 0.0020752Z" fill="black"/>
<path id="Vector_7" d="M123.779 14.2202C123.779 14.2202 121.696 16.8384 117.067 18.4384C113.942 19.5293 113.884 22.5475 116.546 23.6384C119.671 24.9475 125.168 22.8748 123.779 14.2202Z" fill="black"/>
</g>
<g id="flag">
<path id="flag_2" d="M148.933 14.5255L147.203 10.212L148.95 5.85654C149.042 5.62538 149.002 5.36908 148.841 5.1689C148.68 4.96872 148.419 4.84974 148.141 4.84974C148.141 4.84974 139.835 4.84974 139.311 4.84974C138.766 4.84974 138.792 4.58418 138.792 4.58418C138.792 2.92481 137.632 2.18442 136.295 2.18442H128.974C129.141 1.95934 129.235 1.69287 129.235 1.41353C129.235 0.634105 128.515 0 127.63 0H126.605C125.72 0 125 0.634105 125 1.41353C125 1.90316 125.289 2.35362 125.751 2.60986V24H128.484V14.2741H136.373C136.505 14.2741 136.743 14.3089 136.743 14.635V14.6719C136.743 15.1702 137.202 15.5742 137.768 15.5742C137.769 15.5742 137.769 15.5741 137.771 15.5741C137.772 15.5741 137.772 15.5742 137.773 15.5742H148.141C148.141 15.5742 148.142 15.5742 148.142 15.5742C148.616 15.5742 149 15.236 149 14.8189C149 14.7149 148.976 14.6157 148.933 14.5255Z" fill="black"/>
</g>
<g id="report">
<path id="Vector_8" d="M168.789 0.500122V4.50001H173.421L168.789 0.500122Z" fill="black"/>
<path id="Vector_9" d="M167.63 5.50002V0H150V24H174V5.50002H167.63ZM157.34 21.4369H153.069V10.8535H157.34V21.4369V21.4369ZM164.135 21.4369H159.865V13.8535H164.135V21.4369ZM170.931 21.4369H166.66V16.8535H170.931V21.4369Z" fill="black"/>
</g>
<g id="communications">
<path id="Vector_10" d="M198.986 0.645161C198.986 0.288774 198.691 0 198.287 0H175.764C175.36 0 175 0.288774 175 0.645161V23.3548C175 23.7112 175.36 24 175.764 24H188.683C188.878 24 189.065 23.9311 189.202 23.8087L193.987 19.5449L198.804 15.295C198.946 15.1697 199.002 15.0016 199 14.8312C199.001 14.8194 198.986 14.8077 198.986 14.7957V0.645161V0.645161ZM196.521 15.4839L189.333 21.7973V15.4839H196.521ZM181.395 3.44086H192.656C193.1 3.44086 193.461 3.78013 193.461 4.17204C193.461 4.56396 193.1 4.90323 192.656 4.90323H181.395C180.95 4.90323 180.59 4.56396 180.59 4.17204C180.59 3.78013 180.95 3.44086 181.395 3.44086ZM181.395 6.96774H192.656C193.1 6.96774 193.461 7.30701 193.461 7.69892C193.461 8.09084 193.1 8.43011 192.656 8.43011H181.395C180.95 8.43011 180.59 8.09084 180.59 7.69892C180.59 7.30701 180.95 6.96774 181.395 6.96774ZM180.59 11.2688C180.59 10.8769 180.95 10.5806 181.395 10.5806H192.656C193.1 10.5806 193.461 10.8769 193.461 11.2688C193.461 11.6607 193.1 11.957 192.656 11.957H181.395C180.95 11.957 180.59 11.6607 180.59 11.2688Z" fill="black"/>
</g>
<g id="group">
<path id="Vector_11" opacity="0.719" fill-rule="evenodd" clip-rule="evenodd" d="M222.66 5.55277C223.516 6.78706 224 8.49729 224 10.2865C223.999 12.2673 223.4 14.1375 222.375 15.3698C221.324 16.6258 220.463 18.2037 219.844 20.0008L219.773 20.2141C219.753 20.2655 219.719 20.297 219.68 20.297C219.643 20.297 219.607 20.2655 219.589 20.2141L219.465 19.8389C218.849 18.103 218.001 16.5804 216.975 15.3698C215.871 14.0328 215.271 11.9632 215.371 9.83032C215.503 6.72781 217.411 3.90573 219.467 3.75564C220.649 3.66875 221.803 4.31848 222.66 5.55277ZM222.127 11.398C222.433 9.31118 221.586 7.26679 220.235 6.83183C218.883 6.39688 217.54 7.73602 217.233 9.82292C216.927 11.9097 217.775 13.9541 219.126 14.389C220.477 14.824 221.821 13.4849 222.127 11.398Z" fill="black"/>
<path id="Vector_12" opacity="0.719" fill-rule="evenodd" clip-rule="evenodd" d="M207.3 5.55277C208.156 6.78706 208.64 8.49729 208.64 10.2865C208.639 12.2672 208.04 14.1376 207.015 15.3698C205.964 16.6258 205.103 18.2037 204.484 20.0009L204.413 20.2142C204.393 20.2654 204.359 20.2971 204.32 20.2971C204.283 20.2971 204.247 20.2654 204.229 20.2142L204.105 19.8389C203.489 18.103 202.641 16.5805 201.615 15.3698C200.511 14.0329 199.911 11.9631 200.011 9.83028C200.143 6.72781 202.051 3.90573 204.107 3.75564C205.289 3.66875 206.443 4.31848 207.3 5.55277ZM206.767 11.3979C207.073 9.31114 206.226 7.26679 204.875 6.83183C203.523 6.39688 202.18 7.73602 201.873 9.82287C201.567 11.9098 202.415 13.9541 203.766 14.389C205.117 14.824 206.461 13.4849 206.767 11.3979Z" fill="black"/>
<path id="Vector_13" fill-rule="evenodd" clip-rule="evenodd" d="M216.968 2.6161C218.259 4.40533 218.988 6.88775 218.987 9.48071C218.985 12.3522 218.083 15.0676 216.539 16.8568C214.956 18.6776 213.659 20.9666 212.725 23.5714L212.619 23.8815C212.591 23.9545 212.537 24 212.48 24C212.421 24 212.368 23.9545 212.341 23.8815L212.155 23.3384C211.229 20.8204 209.949 18.6125 208.403 16.8549C206.741 14.9176 205.839 11.9157 205.988 8.82508C206.187 4.32042 209.06 0.2285 212.159 0.0112594C213.94 -0.115127 215.677 0.826886 216.968 2.6161ZM216.277 10.7121C216.725 7.65759 215.389 4.63439 213.293 3.95973C211.197 3.28506 209.134 5.2144 208.686 8.26902C208.238 11.3237 209.574 14.3469 211.67 15.0216C213.766 15.6962 215.829 13.7669 216.277 10.7121Z" fill="black"/>
</g>
</g>
</svg>
